<svg width="1024" height="1024" viewBox="0 0 1024 1024" fill="none" xmlns="http://www.w3.org/2000/svg">
<g clip-path="url(#clip0_428_62)">
<rect width="1024" height="1024" rx="100" fill="white"/>
<rect width="1024" height="1024" fill="url(#paint0_linear_428_62)"/>
<path d="M151.097 716.209C89.6629 751.687 220.053 717.79 278.806 700.679C337.561 683.574 381.699 677.766 262.301 720.931C143.219 764.885 161.587 776.661 346.649 720C532.808 663.807 823.146 533.206 823.146 533.206C949.928 483.444 849.914 390.476 845.846 352.954C841.778 315.431 817.755 294.068 796.715 277.898C775.987 262.509 789.812 251.516 734.678 252.61C679.544 253.705 595.163 322.94 309.072 443.651C37.1217 558.716 174.734 529.213 240.082 510.373C305.436 491.539 280.135 508.021 177.074 555.587C73.6975 602.365 197.801 566.428 192.612 583.065C186.636 600.023 57.0245 651.825 161.963 627.186C182.071 622.789 129.587 664.712 177.975 649.012C226.363 633.312 213.473 646.663 153.933 673.191C95.1757 699.405 141.511 699.096 176.227 687.952C209.852 676.337 212.518 680.733 151.087 716.216L151.097 716.209Z" fill="white"/>
</g>
<defs>
<linearGradient id="paint0_linear_428_62" x1="512" y1="0" x2="512" y2="1024" gradientUnits="userSpaceOnUse">
<stop stop-color="#FFA303"/>
<stop offset="0.9999" stop-color="#FFA303" stop-opacity="0.56"/>
<stop offset="1" stop-color="#FFA303" stop-opacity="0"/>
</linearGradient>
<clipPath id="clip0_428_62">
<rect width="1024" height="1024" rx="100" fill="white"/>
</clipPath>
</defs>
</svg>
