<svg width="1024" height="1024" viewBox="0 0 1024 1024" fill="none" xmlns="http://www.w3.org/2000/svg">
<rect width="1024" height="1024" rx="100" fill="white"/>
<path d="M583.547 266.826L605.547 354.802C587.91 359.118 564.387 361.935 538.07 361.935C511.754 361.935 488.253 359.118 470.593 354.802L492.593 266.826C506.56 268.603 521.911 269.596 538.07 269.596C554.23 269.596 569.581 268.603 583.547 266.826ZM577.891 244.249L560.462 174.487C554.645 151.171 521.495 151.171 515.678 174.487L498.249 244.203C510.368 245.703 523.804 246.511 538.07 246.511C552.337 246.511 565.772 245.68 577.891 244.249V244.249ZM679.372 443.078C681.801 443.679 683.969 445.054 685.549 446.994C687.129 448.935 688.035 451.337 688.132 453.837C688.228 456.338 687.509 458.802 686.083 460.859C684.658 462.915 682.602 464.452 680.226 465.239L541.718 511.409C539.35 512.197 536.79 512.197 534.423 511.409L395.914 465.239C393.539 464.452 391.483 462.915 390.057 460.859C388.631 458.802 387.912 456.338 388.009 453.837C388.105 451.337 389.011 448.935 390.591 446.994C392.171 445.054 394.339 443.679 396.768 443.078L451.964 429.273L465.007 377.171C484.906 382.065 510.345 384.996 538.07 384.996C565.795 384.996 591.234 382.065 611.134 377.171L624.176 429.273L679.372 443.078Z" fill="black"/>
<path d="M263.711 802.268C218.066 802.268 187.637 785.939 178.174 762.561C176.875 759.035 176.133 755.51 176.133 752.541C176.133 740.109 185.41 731.76 198.027 731.76C206.748 731.76 214.17 735.656 221.592 744.006C232.168 757.922 244.414 764.23 265.01 764.23C284.678 764.23 297.48 756.066 297.48 742.893C297.48 732.131 290.615 726.379 271.133 722.111L237.734 715.061C198.77 706.711 179.102 686.857 179.102 657.355C179.102 619.318 211.943 594.826 263.525 594.826C304.717 594.826 334.961 613.566 341.455 636.018C342.197 638.801 342.754 641.398 342.754 643.996C342.754 654.943 335.889 662.551 321.973 662.551C314.922 662.551 307.129 659.953 302.305 654.201C292.842 642.141 282.08 632.863 262.598 632.863C244.229 632.863 231.426 641.584 231.426 654.387C231.426 664.777 239.219 671.643 259.072 675.91L291.914 682.961C334.219 691.867 351.66 707.453 351.66 737.141C351.66 776.662 316.221 802.268 263.711 802.268ZM437.383 801.154C399.531 801.154 370.771 776.662 370.771 740.852C370.771 704.67 398.604 683.703 448.33 680.734L498.428 677.766V664.592C498.428 646.037 485.439 635.275 465.029 635.275C448.516 635.275 438.496 640.656 426.436 656.242C420.498 662.922 413.633 666.262 404.912 666.262C391.738 666.262 382.275 657.727 382.275 645.48C382.275 641.213 383.203 637.316 385.059 633.234C394.336 609.484 426.25 594.826 467.441 594.826C518.467 594.826 551.68 621.174 551.68 661.252V774.621C551.68 792.619 540.732 801.896 525.332 801.896C510.674 801.896 500.469 793.732 499.355 777.775V767.57H498.242C487.109 788.723 462.246 801.154 437.383 801.154ZM455.195 762.004C478.945 762.004 498.428 746.604 498.428 725.08V710.607L456.494 713.205C436.27 714.689 424.766 723.781 424.766 737.883C424.766 752.727 437.012 762.004 455.195 762.004ZM628.311 801.896C612.168 801.896 601.221 792.434 601.221 773.693V639.914H590.83C579.512 639.914 570.977 632.678 570.977 619.875C570.977 607.258 579.512 600.021 590.83 600.021H601.221V584.992C601.221 545.656 620.518 528.215 657.998 527.844C686.758 527.844 698.818 536.936 698.818 549.738C698.818 557.346 695.107 561.799 687.871 564.025C684.902 564.768 681.562 565.324 677.48 565.51C660.781 566.066 654.102 572.746 654.102 587.404V600.021H676.924C688.242 600.021 696.777 607.258 696.777 619.875C696.777 632.678 688.242 639.914 676.924 639.914H655.4V773.693C655.4 792.434 644.268 801.896 628.311 801.896ZM808.105 802.268C745.947 802.268 709.395 763.859 709.395 699.475C709.395 635.461 746.689 594.826 805.508 594.826C861.914 594.826 899.766 633.42 899.766 687.414C899.766 702.443 891.23 710.979 876.201 710.979H762.646V713.391C762.646 742.893 780.459 762.189 807.92 762.189C827.773 762.189 840.762 755.51 855.42 738.254C861.172 732.316 865.996 730.275 873.047 730.275C884.736 730.275 894.199 737.697 894.199 750.129C894.199 754.396 892.9 758.85 890.488 763.303C877.314 787.795 846.514 802.268 808.105 802.268ZM763.203 677.766H847.627C846.514 651.789 829.814 634.904 806.064 634.904C782.314 634.904 765.059 652.346 763.203 677.766Z" fill="black"/>
</svg>
