<svg width="1016" height="1016" viewBox="0 0 1016 1016" fill="none" xmlns="http://www.w3.org/2000/svg">
<g clip-path="url(#clip0_74_1077)">
<rect width="1016" height="1016" rx="100" fill="white"/>
<rect x="137.001" y="671.358" width="307.678" height="57.4333" rx="10" transform="rotate(-45 137.001 671.358)" fill="#3883EC"/>
<rect x="371.972" y="581.438" width="307.678" height="57.4333" rx="10" transform="rotate(-45 371.972 581.438)" fill="#3883EC"/>
<rect x="635.943" y="665.566" width="246.143" height="57.4333" rx="10" transform="rotate(-135 635.943 665.566)" fill="#3883EC"/>
<rect x="284.958" y="819.307" width="307.678" height="57.4333" rx="10" transform="rotate(-45 284.958 819.307)" fill="#3883EC"/>
<rect x="325.557" y="859.916" width="266.655" height="57.4333" rx="10" transform="rotate(-135 325.557 859.916)" fill="#3883EC"/>
<rect x="464.801" y="343.57" width="307.678" height="57.4333" rx="10" transform="rotate(-45 464.801 343.57)" fill="#FFCF46"/>
<rect x="612.748" y="491.512" width="307.678" height="57.4333" rx="10" transform="rotate(-45 612.748 491.512)" fill="#FFCF46"/>
<rect x="830.307" y="355.171" width="266.655" height="57.4333" rx="10" transform="rotate(-135 830.307 355.171)" fill="#FFCF46"/>
</g>
<defs>
<clipPath id="clip0_74_1077">
<rect width="1016" height="1016" rx="100" fill="white"/>
</clipPath>
</defs>
</svg>
